<?xml version="1.0" encoding="UTF-8"?>
<!DOCTYPE svg PUBLIC "-//W3C//DTD SVG 1.1//EN" "http://www.w3.org/Graphics/SVG/1.1/DTD/svg11.dtd">
<svg xmlns="http://www.w3.org/2000/svg" version="1.1" width="100px" height="100px" style="shape-rendering:geometricPrecision; text-rendering:geometricPrecision; image-rendering:optimizeQuality; fill-rule:evenodd; clip-rule:evenodd" xmlns:xlink="http://www.w3.org/1999/xlink">
<g><path style="opacity:0.952" fill="#ffffff" d="M 11.5,7.5 C 24.6912,7.00496 37.3579,9.33829 49.5,14.5C 61.6421,9.33829 74.3088,7.00496 87.5,7.5C 87.5,10.1667 87.5,12.8333 87.5,15.5C 90.1667,15.5 92.8333,15.5 95.5,15.5C 95.5,38.8333 95.5,62.1667 95.5,85.5C 79.612,85.7215 64.2787,88.7215 49.5,94.5C 34.7213,88.7215 19.388,85.7215 3.5,85.5C 3.5,62.1667 3.5,38.8333 3.5,15.5C 6.16667,15.5 8.83333,15.5 11.5,15.5C 11.5,12.8333 11.5,10.1667 11.5,7.5 Z M 15.5,12.5 C 26.5318,12.5502 37.0318,14.8836 47,19.5C 47.8331,39.5083 47.6664,59.5083 46.5,79.5C 36.5601,75.4545 26.2268,73.4545 15.5,73.5C 15.5,53.1667 15.5,32.8333 15.5,12.5 Z M 74.5,12.5 C 77.5,12.5 80.5,12.5 83.5,12.5C 83.5,32.8333 83.5,53.1667 83.5,73.5C 72.7732,73.4545 62.4399,75.4545 52.5,79.5C 51.3336,59.5083 51.1669,39.5083 52,19.5C 59.3347,16.2971 66.8347,13.9638 74.5,12.5 Z"/></g>
</svg>
