<?xml version="1.0" encoding="UTF-8"?>
<!DOCTYPE svg PUBLIC "-//W3C//DTD SVG 1.1//EN" "http://www.w3.org/Graphics/SVG/1.1/DTD/svg11.dtd">
<svg xmlns="http://www.w3.org/2000/svg" version="1.1" width="100px" height="100px" style="shape-rendering:geometricPrecision; text-rendering:geometricPrecision; image-rendering:optimizeQuality; fill-rule:evenodd; clip-rule:evenodd" xmlns:xlink="http://www.w3.org/1999/xlink">
<g><path style="opacity:0.965" fill="#ffffff" d="M 15.5,3.5 C 38.1691,3.33337 60.8358,3.50004 83.5,4C 84,4.5 84.5,5 85,5.5C 85.6667,34.8333 85.6667,64.1667 85,93.5C 84.5,94 84,94.5 83.5,95C 60.8333,95.6667 38.1667,95.6667 15.5,95C 15,94.5 14.5,94 14,93.5C 13.3333,64.1667 13.3333,34.8333 14,5.5C 14.7172,4.9558 15.2172,4.28913 15.5,3.5 Z M 36.5,22.5 C 37.8333,22.5 39.1667,22.5 40.5,22.5C 40.5,23.8333 40.5,25.1667 40.5,26.5C 39.1667,26.5 37.8333,26.5 36.5,26.5C 36.5,25.1667 36.5,23.8333 36.5,22.5 Z M 68.5,22.5 C 69.8333,22.5 71.1667,22.5 72.5,22.5C 72.5,23.8333 72.5,25.1667 72.5,26.5C 71.1667,26.5 69.8333,26.5 68.5,26.5C 68.5,25.1667 68.5,23.8333 68.5,22.5 Z M 42.5,28.5 C 42.7352,27.9033 43.2352,27.5699 44,27.5C 48.5126,29.1775 52.3459,31.8442 55.5,35.5C 58.066,31.2602 61.7327,28.5935 66.5,27.5C 65.7279,31.4517 65.3946,35.4517 65.5,39.5C 54.7629,38.398 47.9296,43.0646 45,53.5C 42.0133,49.5123 38.18,46.679 33.5,45C 37.1716,42.8699 41.1716,42.0366 45.5,42.5C 46.0897,37.3599 45.0897,32.6932 42.5,28.5 Z M 63.5,43.5 C 64.675,43.281 65.675,43.6143 66.5,44.5C 67.8333,47.1667 69.1667,49.8333 70.5,52.5C 67.9136,55.6145 66.9136,59.2811 67.5,63.5C 63.4728,64.1389 59.4728,64.9722 55.5,66C 54.1667,67 54.1667,68 55.5,69C 58.8168,69.4983 62.1501,69.665 65.5,69.5C 66.3287,72.4686 66.4954,75.4686 66,78.5C 64.1394,77.2364 62.1394,76.2364 60,75.5C 57.3688,76.9633 55.2021,78.9633 53.5,81.5C 51.9733,79.8067 50.6399,77.9734 49.5,76C 46.4929,75.6987 43.4929,75.8654 40.5,76.5C 42.7379,71.1886 41.4045,67.0219 36.5,64C 40.8333,62.3333 45.1667,60.6667 49.5,59C 50.5719,50.4343 55.2385,45.2677 63.5,43.5 Z M 26.5,44.5 C 27.8333,44.5 29.1667,44.5 30.5,44.5C 30.5,45.8333 30.5,47.1667 30.5,48.5C 29.1667,48.5 27.8333,48.5 26.5,48.5C 26.5,47.1667 26.5,45.8333 26.5,44.5 Z"/></g>
<g><path style="opacity:0.766" fill="#ffffff" d="M 59.5,47.5 C 60.8333,47.5 62.1667,47.5 63.5,47.5C 63.5,48.8333 63.5,50.1667 63.5,51.5C 62.1667,51.5 60.8333,51.5 59.5,51.5C 59.5,50.1667 59.5,48.8333 59.5,47.5 Z"/></g>
</svg>
