<?xml version="1.0" encoding="UTF-8"?>
<!DOCTYPE svg PUBLIC "-//W3C//DTD SVG 1.1//EN" "http://www.w3.org/Graphics/SVG/1.1/DTD/svg11.dtd">
<svg xmlns="http://www.w3.org/2000/svg" version="1.1" width="50px" height="50px" style="shape-rendering:geometricPrecision; text-rendering:geometricPrecision; image-rendering:optimizeQuality; fill-rule:evenodd; clip-rule:evenodd" xmlns:xlink="http://www.w3.org/1999/xlink">
<g><path style="opacity:0.935" fill="#ffffff" d="M 6.5,1.5 C 18.5,1.5 30.5,1.5 42.5,1.5C 42.5,16.8333 42.5,32.1667 42.5,47.5C 30.5,47.5 18.5,47.5 6.5,47.5C 6.5,32.1667 6.5,16.8333 6.5,1.5 Z M 22.5,14.5 C 24.3936,15.0476 26.0603,16.0476 27.5,17.5C 29.1487,16.3523 30.6487,15.019 32,13.5C 32.4955,15.4727 32.6621,17.4727 32.5,19.5C 27.4419,18.7168 23.9419,20.7168 22,25.5C 20.5905,24.2125 19.0905,23.0458 17.5,22C 19.1341,21.5065 20.8008,21.3398 22.5,21.5C 22.5,19.1667 22.5,16.8333 22.5,14.5 Z M 31.5,21.5 C 32.9649,22.4057 33.9649,23.739 34.5,25.5C 33.6518,27.4086 33.3184,29.4086 33.5,31.5C 31.0108,31.2978 28.6775,31.7978 26.5,33C 28.2495,34.3186 30.2495,34.8186 32.5,34.5C 32.6567,35.8734 32.49,37.2068 32,38.5C 29.9555,37.228 28.1222,37.5614 26.5,39.5C 24.8211,37.8955 22.8211,37.2289 20.5,37.5C 20.822,35.2776 20.1554,33.4443 18.5,32C 20.4595,31.0691 22.4595,30.2357 24.5,29.5C 25.4804,25.5269 27.8137,22.8602 31.5,21.5 Z"/></g>
<g><path style="opacity:0.766" fill="#ffffff" d="M 29.5,23.5 C 31.337,23.6395 31.6704,24.3061 30.5,25.5C 29.7025,25.0431 29.3691,24.3764 29.5,23.5 Z"/></g>
</svg>
