<?xml version="1.0" encoding="UTF-8"?>
<!DOCTYPE svg PUBLIC "-//W3C//DTD SVG 1.1//EN" "http://www.w3.org/Graphics/SVG/1.1/DTD/svg11.dtd">
<svg xmlns="http://www.w3.org/2000/svg" version="1.1" width="100px" height="100px" style="shape-rendering:geometricPrecision; text-rendering:geometricPrecision; image-rendering:optimizeQuality; fill-rule:evenodd; clip-rule:evenodd" xmlns:xlink="http://www.w3.org/1999/xlink">
<g><path style="opacity:0.817" fill="#ffffff" d="M -0.5,-0.5 C 1.16667,-0.5 2.83333,-0.5 4.5,-0.5C 11.7975,7.29826 19.2975,14.9649 27,22.5C 32.1667,17.3333 37.3333,12.1667 42.5,7C 46.1916,4.8408 49.6916,5.00747 53,7.5C 53.3333,21.5 53.6667,35.5 54,49.5C 56.6667,52.1667 59.3333,54.8333 62,57.5C 66.9485,53.4262 67.7818,48.5929 64.5,43C 62.7834,41.4412 60.7834,40.6079 58.5,40.5C 58.0101,38.0516 58.8434,36.385 61,35.5C 69.8352,38.8337 73.1685,45.167 71,54.5C 69.9986,57.1732 68.4986,59.5065 66.5,61.5C 68.2219,64.4196 70.5553,66.253 73.5,67C 84.6423,51.0575 82.3089,37.3908 66.5,26C 67.09,24.7011 68.09,23.8678 69.5,23.5C 80.1255,28.7109 85.7921,37.3775 86.5,49.5C 86.0453,58.219 82.712,65.5524 76.5,71.5C 77.8707,73.7054 79.704,75.372 82,76.5C 93.7289,65.9586 97.3956,52.9586 93,37.5C 89.7091,28.5693 83.8758,21.9026 75.5,17.5C 74.5481,15.9547 74.2148,14.288 74.5,12.5C 77.9278,12.5465 80.9278,13.7132 83.5,16C 91.5538,22.523 96.8872,30.6897 99.5,40.5C 99.5,46.5 99.5,52.5 99.5,58.5C 96.7816,67.0853 92.1149,74.5853 85.5,81C 90.0355,85.7033 94.7021,90.2033 99.5,94.5C 99.5,96.1667 99.5,97.8333 99.5,99.5C 98.1667,99.5 96.8333,99.5 95.5,99.5C 63.8333,67.1667 31.8333,35.1667 -0.5,3.5C -0.5,2.16667 -0.5,0.833333 -0.5,-0.5 Z"/></g>
<g><path style="opacity:0.955" fill="#ffffff" d="M 20.5,28.5 C 31.7466,38.243 42.5799,48.5763 53,59.5C 53.6667,69.8333 53.6667,80.1667 53,90.5C 52.6258,91.4162 52.1258,92.2496 51.5,93C 48.366,93.7901 45.366,93.4568 42.5,92C 35,84.5 27.5,77 20,69.5C 19.186,55.7584 19.3527,42.0917 20.5,28.5 Z"/></g>
<g><path style="opacity:0.984" fill="#ffffff" d="M -0.5,65.5 C -0.5,54.8333 -0.5,44.1667 -0.5,33.5C 0.28913,33.2172 0.955796,32.7172 1.5,32C 6.1548,31.5008 10.8215,31.3342 15.5,31.5C 15.5,43.5 15.5,55.5 15.5,67.5C 10.8215,67.6658 6.1548,67.4992 1.5,67C 0.955796,66.2828 0.28913,65.7828 -0.5,65.5 Z"/></g>
</svg>
