<?xml version="1.0" encoding="UTF-8"?>
<!DOCTYPE svg PUBLIC "-//W3C//DTD SVG 1.1//EN" "http://www.w3.org/Graphics/SVG/1.1/DTD/svg11.dtd">
<svg xmlns="http://www.w3.org/2000/svg" version="1.1" width="50px" height="50px" style="shape-rendering:geometricPrecision; text-rendering:geometricPrecision; image-rendering:optimizeQuality; fill-rule:evenodd; clip-rule:evenodd" xmlns:xlink="http://www.w3.org/1999/xlink">
<g><path style="opacity:0.763" fill="#ffffff" d="M -0.5,-0.5 C 0.5,-0.5 1.5,-0.5 2.5,-0.5C 5.79608,3.2976 9.29608,6.96427 13,10.5C 15.5,8 18,5.5 20.5,3C 22.4727,2.50454 24.4727,2.33788 26.5,2.5C 26.3337,9.8409 26.5003,17.1742 27,24.5C 29.5741,28.5948 31.4075,28.4281 32.5,24C 30.8189,22.0109 29.4856,19.8442 28.5,17.5C 35.1094,18.2584 37.2761,21.9251 35,28.5C 33.1049,30.4348 33.4382,32.1015 36,33.5C 41.4786,25.4831 40.3119,18.6498 32.5,13C 33.5929,11.6346 34.9262,11.3013 36.5,12C 44.7729,19.236 45.4396,27.0694 38.5,35.5C 38.8333,36.5 39.5,37.1667 40.5,37.5C 46.1461,32.7942 47.9794,26.7942 46,19.5C 44.4804,14.6448 41.4804,10.9781 37,8.5C 36.5172,7.55198 36.3505,6.55198 36.5,5.5C 42.7388,7.40437 47.0721,11.4044 49.5,17.5C 49.5,22.1667 49.5,26.8333 49.5,31.5C 47.5591,34.4594 45.5591,37.4594 43.5,40.5C 45.1878,42.8545 47.1878,44.8545 49.5,46.5C 49.5,47.5 49.5,48.5 49.5,49.5C 48.5,49.5 47.5,49.5 46.5,49.5C 40.2027,42.7018 33.7027,36.0352 27,29.5C 26.5006,35.1569 26.3339,40.8236 26.5,46.5C 24.4727,46.6621 22.4727,46.4955 20.5,46C 17,42.5 13.5,39 10,35.5C 9.18678,27.9201 9.35344,20.4201 10.5,13C 6.96427,9.29608 3.2976,5.79608 -0.5,2.5C -0.5,1.5 -0.5,0.5 -0.5,-0.5 Z"/></g>
<g><path style="opacity:0.972" fill="#ffffff" d="M -0.5,15.5 C 2.16667,15.5 4.83333,15.5 7.5,15.5C 7.5,21.5 7.5,27.5 7.5,33.5C 4.83333,33.5 2.16667,33.5 -0.5,33.5C -0.5,27.5 -0.5,21.5 -0.5,15.5 Z"/></g>
</svg>
