<?xml version="1.0" encoding="UTF-8"?>
<!DOCTYPE svg PUBLIC "-//W3C//DTD SVG 1.1//EN" "http://www.w3.org/Graphics/SVG/1.1/DTD/svg11.dtd">
<svg xmlns="http://www.w3.org/2000/svg" version="1.1" width="100px" height="100px" style="shape-rendering:geometricPrecision; text-rendering:geometricPrecision; image-rendering:optimizeQuality; fill-rule:evenodd; clip-rule:evenodd" xmlns:xlink="http://www.w3.org/1999/xlink">
<g><path style="opacity:0.927" fill="#ffffff" d="M 31.5,-0.5 C 37.5,-0.5 43.5,-0.5 49.5,-0.5C 52.7926,0.409574 55.2926,2.40957 57,5.5C 59.577,12.9635 61.077,20.6301 61.5,28.5C 55.928,27.9896 50.5947,28.8229 45.5,31C 43.3725,34.7546 41.3725,38.5879 39.5,42.5C 35.613,44.2146 32.113,46.5479 29,49.5C 27.5986,51.1459 27.432,52.8125 28.5,54.5C 30.4956,51.6726 32.9956,49.3392 36,47.5C 36.1667,48.1667 36.3333,48.8333 36.5,49.5C 34.401,54.9967 33.0677,60.6634 32.5,66.5C 25.6424,64.1422 19.8091,60.1422 15,54.5C 8.50822,45.8453 3.34155,36.512 -0.5,26.5C -0.5,24.1667 -0.5,21.8333 -0.5,19.5C 2.64357,14.1915 6.97691,10.0248 12.5,7C 18.7461,3.97976 25.0794,1.47976 31.5,-0.5 Z M 36.5,25.5 C 40.486,24.1585 44.486,24.4919 48.5,26.5C 47.3081,28.6825 45.4747,30.0158 43,30.5C 40.0622,29.7169 37.8955,28.0503 36.5,25.5 Z M 25.5,28.5 C 27.8741,30.4013 28.0407,32.7346 26,35.5C 23.6878,37.4641 21.1878,37.7974 18.5,36.5C 20.5123,33.4919 22.8456,30.8253 25.5,28.5 Z"/></g>
<g><path style="opacity:0.932" fill="#ffffff" d="M 99.5,57.5 C 99.5,59.8333 99.5,62.1667 99.5,64.5C 90.5596,80.7779 77.5596,92.4446 60.5,99.5C 55.1667,99.5 49.8333,99.5 44.5,99.5C 37.7516,92.0427 34.4182,83.2094 34.5,73C 35.4285,58.5481 39.7618,45.2148 47.5,33C 70.4204,29.6297 87.7537,37.7963 99.5,57.5 Z M 52.5,51.5 C 57.7631,50.2627 61.4298,52.0961 63.5,57C 58.9877,56.7439 55.321,54.9106 52.5,51.5 Z M 70.5,62.5 C 77.0124,60.1667 80.5124,62.5 81,69.5C 77.3568,67.2703 73.8568,64.9369 70.5,62.5 Z M 48.5,64.5 C 51.667,67.498 55.0003,70.3314 58.5,73C 63.0907,74.8637 67.7574,76.5304 72.5,78C 55.6315,90.0599 47.6315,85.5599 48.5,64.5 Z"/></g>
</svg>
