<?xml version="1.0" encoding="UTF-8"?>
<!DOCTYPE svg PUBLIC "-//W3C//DTD SVG 1.1//EN" "http://www.w3.org/Graphics/SVG/1.1/DTD/svg11.dtd">
<svg xmlns="http://www.w3.org/2000/svg" version="1.1" width="50px" height="50px" style="shape-rendering:geometricPrecision; text-rendering:geometricPrecision; image-rendering:optimizeQuality; fill-rule:evenodd; clip-rule:evenodd" xmlns:xlink="http://www.w3.org/1999/xlink">
<g><path style="opacity:0.869" fill="#ffffff" d="M 13.5,-0.5 C 17.5,-0.5 21.5,-0.5 25.5,-0.5C 29.133,3.63913 30.7997,8.63913 30.5,14.5C 27.9407,14.1984 25.6074,14.5318 23.5,15.5C 22.8333,15.5 22.5,15.8333 22.5,16.5C 21.6618,16.8417 21.3284,17.5084 21.5,18.5C 20.6618,18.8417 20.3284,19.5084 20.5,20.5C 19.3172,21.5045 17.9839,22.3378 16.5,23C 17.756,23.4169 18.4226,24.2502 18.5,25.5C 17.596,26.209 17.2627,27.209 17.5,28.5C 16.5489,29.9187 16.2155,31.5853 16.5,33.5C 12.9679,32.1467 9.80123,30.1467 7,27.5C 3.9539,23.3983 1.4539,19.065 -0.5,14.5C -0.5,12.5 -0.5,10.5 -0.5,8.5C 3.17701,3.99283 7.84367,0.992832 13.5,-0.5 Z M 18.5,13.5 C 19.9464,12.3871 21.6131,12.2204 23.5,13C 21.9769,14.7884 20.3102,14.9551 18.5,13.5 Z M 12.5,14.5 C 13.525,14.8966 13.6917,15.5632 13,16.5C 12.1627,18.0074 10.9961,18.5074 9.5,18C 10.365,16.6412 11.365,15.4745 12.5,14.5 Z"/></g>
<g><path style="opacity:0.876" fill="#ffffff" d="M 23.5,15.5 C 34.5131,14.6764 43.1798,18.6764 49.5,27.5C 49.5,29.5 49.5,31.5 49.5,33.5C 45.0399,40.6302 39.0399,45.9635 31.5,49.5C 28.1667,49.5 24.8333,49.5 21.5,49.5C 18.0828,44.7794 16.4161,39.4461 16.5,33.5C 17.4511,32.0813 17.7845,30.4147 17.5,28.5C 18.404,27.791 18.7373,26.791 18.5,25.5C 19.5375,24.0697 20.2041,22.403 20.5,20.5C 21.3382,20.1583 21.6716,19.4916 21.5,18.5C 22.3382,18.1583 22.6716,17.4916 22.5,16.5C 23.1667,16.5 23.5,16.1667 23.5,15.5 Z M 26.5,26.5 C 27.8488,25.2035 29.1821,25.3702 30.5,27C 29.1807,27.195 27.8474,27.0283 26.5,26.5 Z M 36.5,31.5 C 38.4959,30.3122 39.3293,30.9789 39,33.5C 38.2917,32.6195 37.4584,31.9528 36.5,31.5 Z M 24.5,33.5 C 27.5835,36.3695 31.2501,38.2029 35.5,39C 28.2824,43.7147 24.6158,41.8814 24.5,33.5 Z"/></g>
</svg>
