<?xml version="1.0" standalone="no"?>
<!DOCTYPE svg PUBLIC "-//W3C//DTD SVG 20010904//EN"
 "http://www.w3.org/TR/2001/REC-SVG-20010904/DTD/svg10.dtd">
<svg version="1.0" xmlns="http://www.w3.org/2000/svg"
 width="100.000000pt" height="100.000000pt" viewBox="0 0 100.000000 100.000000"
 preserveAspectRatio="xMidYMid meet">

<g transform="translate(0.000000,100.000000) scale(0.100000,-0.100000)"
fill="#ffffff" stroke="none">
<path d="M294 961 c-18 -11 -35 -24 -38 -30 -4 -7 -16 -6 -36 1 -44 15 -92 2
-126 -33 -24 -25 -29 -39 -29 -79 0 -32 6 -54 17 -67 14 -15 18 -37 18 -96 l0
-77 194 0 194 0 7 50 c8 61 0 102 -26 126 -18 16 -21 17 -55 1 -47 -23 -75
-21 -116 7 l-34 23 -28 -23 c-36 -31 -80 -31 -111 1 -70 69 23 175 104 119 22
-16 24 -15 51 14 47 52 110 55 155 6 19 -21 27 -24 44 -15 30 17 66 13 95 -10
l26 -20 26 20 c36 28 79 27 109 -4 73 -72 -28 -178 -109 -114 -22 17 -29 19
-42 8 -38 -31 -52 -88 -38 -158 l7 -31 93 0 94 0 0 67 c0 59 3 70 28 96 22 23
27 37 27 77 0 42 -5 54 -30 80 -38 38 -91 48 -134 27 -28 -14 -34 -14 -62 0
-19 10 -44 13 -65 10 -27 -5 -43 0 -71 19 -44 29 -96 31 -139 5z"/>
<path d="M780 641 c0 -17 6 -21 35 -21 25 0 44 -8 62 -26 24 -24 25 -30 20
-91 -8 -80 -45 -163 -86 -194 -17 -12 -31 -31 -31 -41 0 -24 10 -23 50 4 73
50 128 218 101 307 -14 49 -45 72 -106 79 -41 4 -45 3 -45 -17z"/>
<path d="M100 329 c0 -319 -10 -309 320 -309 330 0 320 -10 320 309 l0 211
-83 0 -84 0 5 -29 c5 -34 -26 -71 -58 -71 -32 0 -63 37 -58 71 l5 29 -184 0
-183 0 0 -211z"/>
</g>
</svg>
