<?xml version="1.0" standalone="no"?>
<!DOCTYPE svg PUBLIC "-//W3C//DTD SVG 20010904//EN"
 "http://www.w3.org/TR/2001/REC-SVG-20010904/DTD/svg10.dtd">
<svg version="1.0" xmlns="http://www.w3.org/2000/svg"
 width="50.000000pt" height="50.000000pt" viewBox="0 0 50.000000 50.000000"
 preserveAspectRatio="xMidYMid meet">

<g transform="translate(0.000000,50.000000) scale(0.100000,-0.100000)"
fill="#ffffff" stroke="none">
<path d="M145 476 c-12 -8 -31 -12 -46 -9 -38 7 -74 -29 -64 -65 4 -15 9 -46
12 -70 l5 -43 97 3 96 3 3 27 c2 15 -2 36 -8 47 -9 18 -14 19 -35 9 -19 -8
-31 -8 -50 0 -20 9 -30 9 -45 -1 -15 -9 -25 -9 -38 -1 -41 26 -18 80 31 70 19
-4 34 -1 44 9 18 19 47 19 66 1 8 -9 24 -12 36 -9 11 3 27 0 35 -6 11 -9 19
-9 35 1 27 17 56 0 56 -32 0 -33 -29 -49 -57 -31 -19 12 -23 11 -35 -5 -8 -11
-13 -32 -11 -49 3 -28 6 -30 51 -33 l47 -3 0 33 c0 18 7 42 15 52 34 45 -2
102 -58 92 -29 -5 -52 -1 -137 19 -15 4 -33 0 -45 -9z"/>
<path d="M390 320 c0 -5 8 -10 19 -10 10 0 24 -7 31 -15 19 -23 4 -98 -26
-130 -27 -29 -27 -39 -1 -29 22 8 57 83 57 122 0 19 -8 40 -20 52 -21 21 -60
27 -60 10z"/>
<path d="M50 160 c0 -150 0 -150 160 -150 160 0 160 0 160 150 l0 110 -39 0
c-33 0 -40 -4 -43 -22 -2 -17 -10 -23 -28 -23 -18 0 -26 6 -28 23 -3 21 -8 22
-93 22 l-89 0 0 -110z"/>
</g>
</svg>
