<?xml version="1.0" encoding="UTF-8"?>
<!DOCTYPE svg PUBLIC "-//W3C//DTD SVG 1.1//EN" "http://www.w3.org/Graphics/SVG/1.1/DTD/svg11.dtd">
<svg xmlns="http://www.w3.org/2000/svg" version="1.1" width="50px" height="50px" style="shape-rendering:geometricPrecision; text-rendering:geometricPrecision; image-rendering:optimizeQuality; fill-rule:evenodd; clip-rule:evenodd" xmlns:xlink="http://www.w3.org/1999/xlink">
<g><path style="opacity:0.748" fill="#ffffff" d="M 17.5,1.5 C 41.1541,0.318958 50.6541,11.319 46,34.5C 38.7573,46.8068 28.2573,50.6402 14.5,46C 2.19317,38.7573 -1.64016,28.2573 3,14.5C 6.16246,8.16411 10.9958,3.83077 17.5,1.5 Z M 18.5,4.5 C 23.1817,6.24763 24.6817,9.58097 23,14.5C 21.0748,15.8804 19.2415,17.3804 17.5,19C 14.7433,19.5837 12.0766,19.2504 9.5,18C 7.96436,16.4006 7.46436,14.5672 8,12.5C 10.9753,8.95246 14.4753,6.2858 18.5,4.5 Z M 29.5,4.5 C 34.0549,6.03568 37.8883,8.70234 41,12.5C 41.4496,17.3849 39.1163,19.7183 34,19.5C 25.8707,16.5748 24.3707,11.5748 29.5,4.5 Z M 7.5,20.5 C 10.0279,21.3989 12.5279,22.3989 15,23.5C 15.7348,25.8713 16.5682,28.2046 17.5,30.5C 13.2247,39.7947 9.05808,39.7947 5,30.5C 3.97964,26.5796 4.81298,23.2463 7.5,20.5 Z M 40.5,20.5 C 44.0907,22.8103 45.2573,26.1436 44,30.5C 39.9419,39.7947 35.7753,39.7947 31.5,30.5C 32.4318,28.2046 33.2652,25.8713 34,23.5C 36.294,22.5783 38.4606,21.5783 40.5,20.5 Z M 20.5,32.5 C 23.1873,32.3359 25.854,32.5026 28.5,33C 35.4676,39.5918 34.1343,43.7584 24.5,45.5C 20.0207,45.621 17.0207,43.621 15.5,39.5C 17.4216,37.3134 19.0883,34.9801 20.5,32.5 Z"/></g>
</svg>
