<?xml version="1.0" encoding="UTF-8"?>
<!DOCTYPE svg PUBLIC "-//W3C//DTD SVG 1.1//EN" "http://www.w3.org/Graphics/SVG/1.1/DTD/svg11.dtd">
<svg xmlns="http://www.w3.org/2000/svg" version="1.1" width="100px" height="100px" style="shape-rendering:geometricPrecision; text-rendering:geometricPrecision; image-rendering:optimizeQuality; fill-rule:evenodd; clip-rule:evenodd" xmlns:xlink="http://www.w3.org/1999/xlink">
<g><path style="opacity:0.858" fill="#ffffff" d="M 39.5,3.5 C 67.9223,0.452161 86.4223,12.4522 95,39.5C 98.5361,67.9428 86.7027,86.4428 59.5,95C 26.3579,97.8537 7.3579,82.8537 2.5,50C 4.30051,26.0407 16.6338,10.5407 39.5,3.5 Z M 37.5,9.5 C 40.7206,10.7093 43.7206,12.376 46.5,14.5C 47.6628,19.8023 47.8295,25.1357 47,30.5C 42.1594,34.6844 36.826,38.0178 31,40.5C 26.3658,39.3997 21.8658,37.8997 17.5,36C 16.5,33 15.5,30 14.5,27C 20.3971,18.7312 28.0638,12.8979 37.5,9.5 Z M 59.5,9.5 C 69.8968,12.3986 78.2302,18.2319 84.5,27C 83.5,30 82.5,33 81.5,36C 76.6499,37.8382 71.8166,39.6715 67,41.5C 62.3591,38.3595 57.8591,35.0261 53.5,31.5C 52.3368,25.8625 52.1701,20.1959 53,14.5C 55.3256,12.9343 57.4922,11.2676 59.5,9.5 Z M 14.5,41.5 C 20.2129,42.4598 25.7129,44.1265 31,46.5C 32.7346,51.8707 34.568,57.204 36.5,62.5C 33.2886,67.0891 29.9553,71.5891 26.5,76C 23.0927,76.2661 19.7594,75.7661 16.5,74.5C 10.2188,66.1597 7.71878,56.8264 9,46.5C 11.3284,45.3365 13.1618,43.6698 14.5,41.5 Z M 80.5,41.5 C 81.8734,41.3433 83.2068,41.51 84.5,42C 86.0429,43.8783 87.8762,45.3783 90,46.5C 91.4092,57.2718 88.5759,66.7718 81.5,75C 78.1436,76.182 74.8102,76.3486 71.5,75.5C 68.2533,71.3409 65.2533,67.0076 62.5,62.5C 64.432,57.204 66.2654,51.8707 68,46.5C 72.2893,44.9089 76.456,43.2422 80.5,41.5 Z M 40.5,65.5 C 46.5092,65.3338 52.5092,65.5005 58.5,66C 61.9097,70.4084 64.9097,75.0751 67.5,80C 66.4021,82.4602 65.4021,84.9602 64.5,87.5C 54.3952,92.3653 44.3952,92.3653 34.5,87.5C 33.5979,84.9602 32.5979,82.4602 31.5,80C 34.3398,75.0094 37.3398,70.176 40.5,65.5 Z"/></g>
</svg>
