<?xml version="1.0" encoding="UTF-8"?>
<!DOCTYPE svg PUBLIC "-//W3C//DTD SVG 1.1//EN" "http://www.w3.org/Graphics/SVG/1.1/DTD/svg11.dtd">
<svg xmlns="http://www.w3.org/2000/svg" version="1.1" width="50px" height="50px" style="shape-rendering:geometricPrecision; text-rendering:geometricPrecision; image-rendering:optimizeQuality; fill-rule:evenodd; clip-rule:evenodd" xmlns:xlink="http://www.w3.org/1999/xlink">
<g><path style="opacity:0.906" fill="#ffffff" d="M 17.5,1.5 C 41.1541,0.318958 50.6541,11.319 46,34.5C 38.7573,46.8068 28.2573,50.6402 14.5,46C 2.19317,38.7573 -1.64016,28.2573 3,14.5C 6.16246,8.16411 10.9958,3.83077 17.5,1.5 Z M 15.5,10.5 C 16.8775,9.76558 18.3775,9.09891 20,8.5C 20.1667,8.83333 20.3333,9.16667 20.5,9.5C 18.9547,10.4519 17.288,10.7852 15.5,10.5 Z M 14.5,19.5 C 15.8333,19.5 17.1667,19.5 18.5,19.5C 18.5,20.8333 18.5,22.1667 18.5,23.5C 17.1667,23.5 15.8333,23.5 14.5,23.5C 14.5,22.1667 14.5,20.8333 14.5,19.5 Z M 30.5,19.5 C 31.8333,19.5 33.1667,19.5 34.5,19.5C 34.5,20.8333 34.5,22.1667 34.5,23.5C 33.1667,23.5 31.8333,23.5 30.5,23.5C 30.5,22.1667 30.5,20.8333 30.5,19.5 Z"/></g>
</svg>
