<?xml version="1.0" encoding="UTF-8"?>
<!DOCTYPE svg PUBLIC "-//W3C//DTD SVG 1.1//EN" "http://www.w3.org/Graphics/SVG/1.1/DTD/svg11.dtd">
<svg xmlns="http://www.w3.org/2000/svg" version="1.1" width="100px" height="100px" style="shape-rendering:geometricPrecision; text-rendering:geometricPrecision; image-rendering:optimizeQuality; fill-rule:evenodd; clip-rule:evenodd" xmlns:xlink="http://www.w3.org/1999/xlink">
<g><path style="opacity:0.95" fill="#ffffff" d="M 39.5,3.5 C 67.9223,0.452161 86.4223,12.4522 95,39.5C 98.5361,67.9428 86.7027,86.4428 59.5,95C 31.0572,98.5361 12.5572,86.7027 4,59.5C 0.672469,31.0314 12.5058,12.3647 39.5,3.5 Z M 40.5,17.5 C 42.4663,18.2545 42.7996,19.4212 41.5,21C 33.405,21.2146 26.7383,24.3813 21.5,30.5C 21.1667,30 20.8333,29.5 20.5,29C 25.5528,22.3084 32.2195,18.4751 40.5,17.5 Z M 56.5,24.5 C 63.493,26.2174 70.493,28.0507 77.5,30C 78.7414,31.4865 78.2414,32.3199 76,32.5C 69.7057,31.0683 63.5391,29.235 57.5,27C 56.7476,26.3292 56.4142,25.4959 56.5,24.5 Z M 30.5,38.5 C 38.4863,37.998 40.4863,41.1647 36.5,48C 28.424,48.8047 26.424,45.638 30.5,38.5 Z M 62.5,38.5 C 70.4863,37.998 72.4863,41.1647 68.5,48C 60.424,48.8047 58.424,45.638 62.5,38.5 Z M 54.5,68.5 C 58.1817,68.3347 61.8484,68.5014 65.5,69C 68.2674,69.6692 68.7674,70.8359 67,72.5C 62.8764,71.4285 58.7097,71.2618 54.5,72C 47.9511,75.0748 41.1178,76.9081 34,77.5C 32.3831,76.4642 32.2164,75.2975 33.5,74C 41.1083,74.068 48.1083,72.2347 54.5,68.5 Z"/></g>
</svg>
