<?xml version="1.0" encoding="UTF-8"?>
<!DOCTYPE svg PUBLIC "-//W3C//DTD SVG 1.1//EN" "http://www.w3.org/Graphics/SVG/1.1/DTD/svg11.dtd">
<svg xmlns="http://www.w3.org/2000/svg" version="1.1" width="50px" height="50px" style="shape-rendering:geometricPrecision; text-rendering:geometricPrecision; image-rendering:optimizeQuality; fill-rule:evenodd; clip-rule:evenodd" xmlns:xlink="http://www.w3.org/1999/xlink">
<g><path style="opacity:0.911" fill="#ffffff" d="M 17.5,1.5 C 26.2889,0.189643 34.2889,2.02298 41.5,7C 47.0637,13.1394 48.8971,20.306 47,28.5C 41.0137,41.4907 31.0137,46.1574 17,42.5C 12.9025,46.2987 8.06918,47.9653 2.5,47.5C 3.23233,44.0193 4.56566,40.686 6.5,37.5C -3.27351,21.1571 0.393161,9.15714 17.5,1.5 Z M 15.5,12.5 C 16.8478,13.5268 17.3478,14.8602 17,16.5C 16.0805,16.0698 15.2472,15.7365 14.5,15.5C 15.1272,14.5832 15.4606,13.5832 15.5,12.5 Z M 13.5,19.5 C 15.1667,20.8333 16.8333,20.8333 18.5,19.5C 19.404,20.209 19.7373,21.209 19.5,22.5C 17.1667,22.5 14.8333,22.5 12.5,22.5C 12.2627,21.209 12.596,20.209 13.5,19.5 Z M 35.5,25.5 C 32.9391,23.9065 29.9391,22.9065 26.5,22.5C 28.6887,21.8265 30.6887,20.8265 32.5,19.5C 34.3113,20.8265 36.3113,21.8265 38.5,22.5C 37.452,23.548 36.452,24.548 35.5,25.5 Z M 32.5,29.5 C 32.8333,30.1667 33.1667,30.8333 33.5,31.5C 32.5,31.5 31.5,31.5 30.5,31.5C 30.5,30.1667 31.1667,29.5 32.5,29.5 Z"/></g>
</svg>
