<?xml version="1.0" encoding="UTF-8"?>
<!DOCTYPE svg PUBLIC "-//W3C//DTD SVG 1.1//EN" "http://www.w3.org/Graphics/SVG/1.1/DTD/svg11.dtd">
<svg xmlns="http://www.w3.org/2000/svg" version="1.1" width="50px" height="50px" style="shape-rendering:geometricPrecision; text-rendering:geometricPrecision; image-rendering:optimizeQuality; fill-rule:evenodd; clip-rule:evenodd" xmlns:xlink="http://www.w3.org/1999/xlink">
<g><path style="opacity:0.977" fill="#ffffff" d="M 10.5,41.5 C 11.1174,41.3893 11.6174,41.056 12,40.5C 12.6667,29.8333 12.6667,19.1667 12,8.5C 10.4412,6.7834 9.60791,4.7834 9.5,2.5C 13.8333,2.5 18.1667,2.5 22.5,2.5C 22.5,14.8333 22.5,27.1667 22.5,39.5C 29.8333,39.5 37.1667,39.5 44.5,39.5C 44.2562,42.2626 42.9229,44.4293 40.5,46C 29.8385,46.4998 19.1719,46.6665 8.5,46.5C 8.39151,44.4862 9.05817,42.8195 10.5,41.5 Z"/></g>
<g><path style="opacity:0.864" fill="#ffffff" d="M 24.5,6.5 C 37.4951,6.82839 44.1617,13.4951 44.5,26.5C 44.6799,30.0343 44.0133,33.3676 42.5,36.5C 36.7494,37.2197 30.7494,37.553 24.5,37.5C 24.5,28.5 24.5,19.5 24.5,10.5C 31.1667,10.1667 31.1667,9.83333 24.5,9.5C 24.5,8.5 24.5,7.5 24.5,6.5 Z"/></g>
<g><path style="opacity:0.647" fill="#ffffff" d="M 10.5,41.5 C 6.0406,37.5685 4.0406,32.5685 4.5,26.5C 4.08266,20.6692 5.916,15.6692 10,11.5C 10.4985,21.4835 10.6651,31.4835 10.5,41.5 Z"/></g>
</svg>
