<?xml version="1.0" encoding="UTF-8"?>
<!DOCTYPE svg PUBLIC "-//W3C//DTD SVG 1.1//EN" "http://www.w3.org/Graphics/SVG/1.1/DTD/svg11.dtd">
<svg xmlns="http://www.w3.org/2000/svg" version="1.1" width="100px" height="100px" style="shape-rendering:geometricPrecision; text-rendering:geometricPrecision; image-rendering:optimizeQuality; fill-rule:evenodd; clip-rule:evenodd" xmlns:xlink="http://www.w3.org/1999/xlink">
<g><path style="opacity:0.99" fill="#ffffff" d="M 19.5,5.5 C 28.1667,5.5 36.8333,5.5 45.5,5.5C 45.5,30.1667 45.5,54.8333 45.5,79.5C 60.1667,79.5 74.8333,79.5 89.5,79.5C 89.6567,80.8734 89.49,82.2068 89,83.5C 85.8333,86.6667 82.6667,89.8333 79.5,93C 58.836,93.5 38.1694,93.6666 17.5,93.5C 17.3433,92.1266 17.51,90.7932 18,89.5C 20.3333,87.1667 22.6667,84.8333 25,82.5C 25.6667,60.5 25.6667,38.5 25,16.5C 21.5927,13.6001 19.7594,9.93348 19.5,5.5 Z"/></g>
<g><path style="opacity:0.764" fill="#ffffff" d="M 49.5,13.5 C 74.4962,15.1629 87.8296,28.4962 89.5,53.5C 90.0596,61.4338 88.0596,68.6004 83.5,75C 81.5,75.6667 79.5,75.6667 77.5,75C 89.6068,54.67 86.2735,37.3367 67.5,23C 61.9258,19.7522 55.9258,18.2522 49.5,18.5C 49.5,16.8333 49.5,15.1667 49.5,13.5 Z"/></g>
<g><path style="opacity:0.973" fill="#ffffff" d="M 49.5,21.5 C 69.8291,22.4957 80.4957,33.1624 81.5,53.5C 81.1324,74.9812 70.4657,82.3145 49.5,75.5C 49.5,57.5 49.5,39.5 49.5,21.5 Z"/></g>
<g><path style="opacity:0.77" fill="#ffffff" d="M 20.5,24.5 C 21.6341,26.9664 21.8007,29.633 21,32.5C 12.3333,46.5 12.3333,60.5 21,74.5C 21.6667,77.1667 21.6667,79.8333 21,82.5C 9.82989,70.4821 6.49655,56.4821 11,40.5C 13.4092,34.6759 16.5759,29.3426 20.5,24.5 Z"/></g>
<g><path style="opacity:0.84" fill="#ffffff" d="M 20.5,37.5 C 21.6588,47.992 21.8255,58.6586 21,69.5C 16.5048,58.9066 16.3382,48.24 20.5,37.5 Z"/></g>
</svg>
