<?xml version="1.0" encoding="UTF-8"?>
<!DOCTYPE svg PUBLIC "-//W3C//DTD SVG 1.1//EN" "http://www.w3.org/Graphics/SVG/1.1/DTD/svg11.dtd">
<svg xmlns="http://www.w3.org/2000/svg" version="1.1" width="50px" height="50px" style="shape-rendering:geometricPrecision; text-rendering:geometricPrecision; image-rendering:optimizeQuality; fill-rule:evenodd; clip-rule:evenodd" xmlns:xlink="http://www.w3.org/1999/xlink">
<g><path style="opacity:0.926" fill="#ffffff" d="M 17.5,1.5 C 41.1541,0.318958 50.6541,11.319 46,34.5C 38.7573,46.8068 28.2573,50.6402 14.5,46C 2.19317,38.7573 -1.64016,28.2573 3,14.5C 6.16246,8.16411 10.9958,3.83077 17.5,1.5 Z M 22.5,12.5 C 26.9621,11.8035 29.6287,13.6368 30.5,18C 28.9069,22.0186 26.9069,25.852 24.5,29.5C 23.4173,28.635 23.2506,27.635 24,26.5C 27.331,23.5144 28.6643,19.8477 28,15.5C 27.1074,14.9186 26.1074,14.5852 25,14.5C 22.7596,15.476 20.593,16.3093 18.5,17C 19.3574,14.9812 20.6908,13.4812 22.5,12.5 Z M 23.5,33.5 C 25.4646,33.9483 25.7979,34.9483 24.5,36.5C 23.6143,35.675 23.281,34.675 23.5,33.5 Z"/></g>
</svg>
