<?xml version="1.0" encoding="UTF-8"?>
<!DOCTYPE svg PUBLIC "-//W3C//DTD SVG 1.1//EN" "http://www.w3.org/Graphics/SVG/1.1/DTD/svg11.dtd">
<svg xmlns="http://www.w3.org/2000/svg" version="1.1" width="100px" height="100px" style="shape-rendering:geometricPrecision; text-rendering:geometricPrecision; image-rendering:optimizeQuality; fill-rule:evenodd; clip-rule:evenodd" xmlns:xlink="http://www.w3.org/1999/xlink">
<g><path style="opacity:0.962" fill="#ffffff" d="M 39.5,3.5 C 67.9223,0.452161 86.4223,12.4522 95,39.5C 98.5361,67.9428 86.7027,86.4428 59.5,95C 31.0572,98.5361 12.5572,86.7027 4,59.5C 0.672469,31.0314 12.5058,12.3647 39.5,3.5 Z M 44.5,25.5 C 58.1289,23.6253 63.6289,29.2919 61,42.5C 58.578,46.3438 55.9113,50.0105 53,53.5C 52.5034,55.8098 52.3367,58.1432 52.5,60.5C 50.8333,60.5 49.1667,60.5 47.5,60.5C 47.3367,58.1432 47.5034,55.8098 48,53.5C 51.3943,49.1019 54.3943,44.4352 57,39.5C 57.421,30.9579 53.5876,28.1246 45.5,31C 43.393,32.2635 42.393,34.0968 42.5,36.5C 40.8333,36.5 39.1667,36.5 37.5,36.5C 38.087,31.646 40.4203,27.9793 44.5,25.5 Z M 47.5,66.5 C 49.1667,66.5 50.8333,66.5 52.5,66.5C 52.5,68.8333 52.5,71.1667 52.5,73.5C 50.5,73.5 48.5,73.5 46.5,73.5C 46.298,71.0504 46.6314,68.717 47.5,66.5 Z"/></g>
</svg>
