<?xml version="1.0" standalone="no"?>
<!DOCTYPE svg PUBLIC "-//W3C//DTD SVG 20010904//EN"
 "http://www.w3.org/TR/2001/REC-SVG-20010904/DTD/svg10.dtd">
<svg version="1.0" xmlns="http://www.w3.org/2000/svg"
 width="50.000000pt" height="50.000000pt" viewBox="0 0 50.000000 50.000000"
 preserveAspectRatio="xMidYMid meet">

<g transform="translate(0.000000,50.000000) scale(0.100000,-0.100000)"
fill="#ffffff" stroke="none">
<path d="M189 471 c-20 -20 -29 -39 -29 -61 0 -43 47 -90 90 -90 43 0 90 47
90 90 0 43 -47 90 -90 90 -22 0 -41 -9 -61 -29z"/>
<path d="M185 304 c-11 -3 -39 -12 -62 -20 -39 -14 -43 -19 -72 -96 -42 -107
-45 -126 -31 -143 16 -19 42 -19 115 3 52 16 60 21 60 43 0 23 -3 24 -52 22
-59 -3 -71 11 -19 21 22 4 37 14 41 26 7 23 54 50 85 50 23 0 76 -25 82 -38 1
-4 21 -14 42 -23 58 -21 60 -42 2 -23 -53 18 -76 13 -76 -15 0 -14 16 -27 58
-46 77 -35 105 -40 121 -21 15 18 12 36 -29 144 -29 75 -34 81 -73 97 -42 17
-155 28 -192 19z"/>
<path d="M320 42 c0 -12 -46 -32 -71 -32 -11 0 -33 7 -49 15 -21 11 -36 12
-54 5 -56 -21 -25 -30 104 -30 108 0 130 3 130 15 0 8 -9 19 -19 25 -24 12
-41 13 -41 2z"/>
</g>
</svg>
