<?xml version="1.0" standalone="no"?>
<!DOCTYPE svg PUBLIC "-//W3C//DTD SVG 20010904//EN"
 "http://www.w3.org/TR/2001/REC-SVG-20010904/DTD/svg10.dtd">
<svg version="1.0" xmlns="http://www.w3.org/2000/svg"
 width="100.000000pt" height="100.000000pt" viewBox="0 0 100.000000 100.000000"
 preserveAspectRatio="xMidYMid meet">

<g transform="translate(0.000000,100.000000) scale(0.100000,-0.100000)"
fill="#ffffff" stroke="none">
<path d="M420 978 c-132 -67 -132 -249 0 -315 24 -13 60 -23 80 -23 20 0 56
10 80 23 132 66 132 248 0 315 -24 12 -60 22 -80 22 -20 0 -56 -10 -80 -22z"/>
<path d="M385 608 c-91 -17 -184 -48 -210 -71 -17 -15 -45 -78 -90 -202 -69
-190 -72 -204 -54 -238 17 -31 28 -37 75 -37 56 0 265 64 281 86 19 26 16 51
-8 75 -19 19 -28 21 -83 14 -94 -12 -111 -12 -111 4 0 15 25 25 87 36 30 5 41
13 54 41 19 40 63 76 113 93 75 25 144 6 207 -55 25 -24 52 -44 60 -44 29 0
144 -53 144 -66 0 -20 -22 -17 -106 12 -83 30 -119 27 -136 -11 -21 -47 0 -67
129 -125 148 -66 182 -72 217 -37 14 14 26 36 26 49 0 44 -129 382 -154 404
-26 23 -125 56 -220 73 -70 13 -151 13 -221 -1z"/>
<path d="M632 73 c-62 -60 -169 -68 -245 -18 l-38 26 -55 -18 c-45 -14 -54
-21 -52 -37 3 -21 8 -21 258 -21 l255 0 3 31 c3 29 -1 32 -45 50 l-48 19 -33
-32z"/>
</g>
</svg>
