<?xml version="1.0" encoding="UTF-8"?>
<!DOCTYPE svg PUBLIC "-//W3C//DTD SVG 1.1//EN" "http://www.w3.org/Graphics/SVG/1.1/DTD/svg11.dtd">
<svg xmlns="http://www.w3.org/2000/svg" version="1.1" width="50px" height="50px" style="shape-rendering:geometricPrecision; text-rendering:geometricPrecision; image-rendering:optimizeQuality; fill-rule:evenodd; clip-rule:evenodd" xmlns:xlink="http://www.w3.org/1999/xlink">
<g><path style="opacity:0.785" fill="#ffffff" d="M 15.5,-0.5 C 16.5,-0.5 17.5,-0.5 18.5,-0.5C 18.1617,3.15075 19.8284,4.81741 23.5,4.5C 23.272,6.35473 23.9387,7.18806 25.5,7C 26.3431,5.21339 26.5098,3.38005 26,1.5C 27.3024,0.915201 28.469,0.248534 29.5,-0.5C 30.5,-0.5 31.5,-0.5 32.5,-0.5C 32.5,0.5 32.5,1.5 32.5,2.5C 33.5,2.5 34.5,2.5 35.5,2.5C 34.3762,4.73096 33.8762,7.0643 34,9.5C 34.2492,8.37598 34.7492,7.37598 35.5,6.5C 36.7678,7.42789 38.1011,7.59456 39.5,7C 42.3979,2.25697 44.3979,2.75697 45.5,8.5C 46.7362,9.24585 48.0695,9.57918 49.5,9.5C 49.5,10.5 49.5,11.5 49.5,12.5C 46.9791,14.0304 45.9791,16.3637 46.5,19.5C 44.0968,19.607 42.2635,18.607 41,16.5C 40.2981,22.3713 40.6315,28.038 42,33.5C 38.8504,37.1189 36.1837,41.1189 34,45.5C 32.3333,46.7332 30.8333,48.0665 29.5,49.5C 26.1667,49.5 22.8333,49.5 19.5,49.5C 17.2294,47.7341 15.0627,45.7341 13,43.5C 11.7441,39.9837 9.74413,36.9837 7,34.5C 6.42343,30.6346 6.92343,26.968 8.5,23.5C 8.40245,21.3807 7.56911,19.714 6,18.5C 4.89037,20.0368 3.39037,20.7035 1.5,20.5C 1.87988,18.302 1.21321,16.6354 -0.5,15.5C -0.5,14.5 -0.5,13.5 -0.5,12.5C 1.68471,12.1119 3.51804,11.1119 5,9.5C 8.01014,12.4052 10.1768,11.9052 11.5,8C 10.1439,6.43292 9.47724,4.59959 9.5,2.5C 12.3202,2.91301 14.3202,1.91301 15.5,-0.5 Z M 15.5,5.5 C 17.7602,6.23764 17.9269,7.23764 16,8.5C 15.5172,7.55198 15.3505,6.55198 15.5,5.5 Z M 41.5,9.5 C 43.7388,11.0012 43.7388,12.3345 41.5,13.5C 40.3744,12.1916 40.3744,10.8583 41.5,9.5 Z M 17.5,19.5 C 22.5861,19.9406 27.5861,20.7739 32.5,22C 34.0738,23.8259 34.9071,25.9925 35,28.5C 40.3201,30.0699 40.6535,32.0699 36,34.5C 34.1368,43.0542 28.9701,46.8875 20.5,46C 16.112,41.8855 12.4453,37.2188 9.5,32C 13.7093,28.9532 16.376,24.7866 17.5,19.5 Z M 20.5,29.5 C 21.675,29.281 22.675,29.6143 23.5,30.5C 21.9483,31.7979 20.9483,31.4646 20.5,29.5 Z M 27.5,30.5 C 28.675,30.281 29.675,30.6143 30.5,31.5C 28.9483,32.7979 27.9483,32.4646 27.5,30.5 Z"/></g>
<g><path style="opacity:0.696" fill="#ffffff" d="M 18.5,26.5 C 23.1785,26.3342 27.8452,26.5008 32.5,27C 33.6023,29.4009 33.769,31.9009 33,34.5C 28.2523,35.6349 23.419,35.8015 18.5,35C 17.2138,32.1684 17.2138,29.3351 18.5,26.5 Z M 20.5,29.5 C 20.9483,31.4646 21.9483,31.7979 23.5,30.5C 22.675,29.6143 21.675,29.281 20.5,29.5 Z M 27.5,30.5 C 27.9483,32.4646 28.9483,32.7979 30.5,31.5C 29.675,30.6143 28.675,30.281 27.5,30.5 Z"/></g>
</svg>
