<?xml version="1.0" encoding="UTF-8"?>
<!DOCTYPE svg PUBLIC "-//W3C//DTD SVG 1.1//EN" "http://www.w3.org/Graphics/SVG/1.1/DTD/svg11.dtd">
<svg xmlns="http://www.w3.org/2000/svg" version="1.1" width="100px" height="100px" style="shape-rendering:geometricPrecision; text-rendering:geometricPrecision; image-rendering:optimizeQuality; fill-rule:evenodd; clip-rule:evenodd" xmlns:xlink="http://www.w3.org/1999/xlink">
<g><path style="opacity:0.873" fill="#ffffff" d="M 31.5,-0.5 C 33.1667,-0.5 34.8333,-0.5 36.5,-0.5C 36.9629,2.48237 37.2962,5.48237 37.5,8.5C 41.3192,8.44973 44.6525,9.61639 47.5,12C 46.8333,13 46.1667,14 45.5,15C 47.8098,15.4966 50.1432,15.6633 52.5,15.5C 52.5861,13.323 53.2528,11.323 54.5,9.5C 51.0394,4.08245 52.3727,1.91578 58.5,3C 59.305,1.88732 59.9717,0.72065 60.5,-0.5C 61.8333,-0.5 63.1667,-0.5 64.5,-0.5C 65.3414,1.3792 65.6747,3.3792 65.5,5.5C 68.2605,4.91465 69.9272,5.91465 70.5,8.5C 70.1667,10.1667 69.1667,11.1667 67.5,11.5C 66.7792,13.686 66.1125,15.8526 65.5,18C 67.0548,19.2893 68.7215,19.956 70.5,20C 68.9861,18.561 68.6527,17.061 69.5,15.5C 73.1541,15.2701 76.8208,14.9367 80.5,14.5C 81.2594,11.5943 82.926,9.59427 85.5,8.5C 86.4419,8.60816 87.2753,8.94149 88,9.5C 88.696,12.4781 89.196,15.4781 89.5,18.5C 92.8333,19.1667 96.1667,19.8333 99.5,20.5C 99.5,22.1667 99.5,23.8333 99.5,25.5C 96.7378,26.3795 94.0711,27.5462 91.5,29C 95.1527,40.754 92.4861,42.4206 83.5,34C 82.552,33.5172 81.552,33.3505 80.5,33.5C 80.8472,45.1548 82.0138,56.4881 84,67.5C 82.3333,70.5 80,72.8333 77,74.5C 73.0443,85.8388 65.8776,94.1722 55.5,99.5C 50.8333,99.5 46.1667,99.5 41.5,99.5C 31.3837,93.9758 24.5504,85.6425 21,74.5C 12.9036,70.0879 11.4036,64.0879 16.5,56.5C 17.8333,50.8333 17.8333,45.1667 16.5,39.5C 12.7388,37.0048 9.40549,37.6715 6.5,41.5C 4.95409,40.7884 3.95409,39.6217 3.5,38C 5.32943,33.9827 3.99609,31.816 -0.5,31.5C -0.5,29.8333 -0.5,28.1667 -0.5,26.5C 4.37264,27.4001 7.0393,25.4001 7.5,20.5C 8.16667,20.1667 8.83333,19.8333 9.5,19.5C 11.6868,20.3222 13.3534,21.8222 14.5,24C 16.8098,24.4966 19.1432,24.6633 21.5,24.5C 21.2022,27.3356 21.8689,27.8356 23.5,26C 22.3081,22.7565 22.6415,19.5898 24.5,16.5C 23.5771,14.0758 22.0771,12.0758 20,10.5C 19.51,9.20677 19.3433,7.87344 19.5,6.5C 26.2254,8.37025 30.2254,6.03691 31.5,-0.5 Z M 32.5,9.5 C 33.3807,11.3036 34.714,12.8036 36.5,14C 35.245,16.4603 33.245,17.627 30.5,17.5C 30.7135,15.8561 30.3802,14.3561 29.5,13C 31.4257,12.5776 32.4257,11.4109 32.5,9.5 Z M 83.5,19.5 C 85.111,21.3614 87.111,22.8614 89.5,24C 87.2769,24.6517 86.1102,26.1517 86,28.5C 84.2041,27.233 82.3707,27.233 80.5,28.5C 80.6529,26.4999 80.3196,24.3332 79.5,22C 81.3197,21.7996 82.653,20.9663 83.5,19.5 Z M 9.5,29.5 C 13.2998,29.8194 13.4665,30.8194 10,32.5C 9.51722,31.552 9.35055,30.552 9.5,29.5 Z M 20.5,29.5 C 20.1077,31.1789 19.6077,32.8455 19,34.5C 17.0346,32.2489 17.5346,30.5823 20.5,29.5 Z M 35.5,38.5 C 45.1482,40.0295 54.8149,41.5295 64.5,43C 69.227,46.988 71.5603,52.1547 71.5,58.5C 81.6592,61.2228 82.1592,65.2228 73,70.5C 69.5708,80.5436 63.4041,88.377 54.5,94C 43.4722,95.9019 35.3055,91.7352 30,81.5C 28.0593,77.9523 26.3926,74.2857 25,70.5C 23,69.1667 21,67.8333 19,66.5C 18.3333,64.8333 18.3333,63.1667 19,61.5C 21.6157,60.3468 24.2824,59.3468 27,58.5C 29.5493,51.7322 32.3827,45.0655 35.5,38.5 Z M 41.5,58.5 C 47.6739,57.1729 49.8406,59.5062 48,65.5C 45.6667,62.8333 43.3333,62.8333 41,65.5C 40.2967,63.0709 40.4634,60.7375 41.5,58.5 Z M 54.5,59.5 C 57.0103,62.0613 59.5103,62.0613 62,59.5C 63.8333,65.6667 61.6667,67.8333 55.5,66C 54.5769,63.9592 54.2436,61.7925 54.5,59.5 Z"/></g>
<g><path style="opacity:0.825" fill="#ffffff" d="M 40.5,53.5 C 44.3834,53.1091 48.05,53.7758 51.5,55.5C 64.4438,50.9467 69.2772,55.28 66,68.5C 61.4496,72.0871 56.6162,72.4204 51.5,69.5C 38.5562,74.0533 33.7228,69.72 37,56.5C 38.1451,55.3636 39.3117,54.3636 40.5,53.5 Z M 41.5,58.5 C 40.4634,60.7375 40.2967,63.0709 41,65.5C 43.3333,62.8333 45.6667,62.8333 48,65.5C 49.8406,59.5062 47.6739,57.1729 41.5,58.5 Z M 54.5,59.5 C 54.2436,61.7925 54.5769,63.9592 55.5,66C 61.6667,67.8333 63.8333,65.6667 62,59.5C 59.5103,62.0613 57.0103,62.0613 54.5,59.5 Z"/></g>
</svg>
