<?xml version="1.0" encoding="UTF-8"?>
<!DOCTYPE svg PUBLIC "-//W3C//DTD SVG 1.1//EN" "http://www.w3.org/Graphics/SVG/1.1/DTD/svg11.dtd">
<svg xmlns="http://www.w3.org/2000/svg" version="1.1" width="50px" height="50px" style="shape-rendering:geometricPrecision; text-rendering:geometricPrecision; image-rendering:optimizeQuality; fill-rule:evenodd; clip-rule:evenodd" xmlns:xlink="http://www.w3.org/1999/xlink">
<g><path style="opacity:0.86" fill="#ffffff" d="M 32.5,-0.5 C 33.1667,-0.5 33.8333,-0.5 34.5,-0.5C 44.5582,2.73909 47.2249,9.07243 42.5,18.5C 37.1814,13.6818 32.0147,8.68176 27,3.5C 26.3123,2.66828 26.479,2.00161 27.5,1.5C 29.3361,0.972438 31.0028,0.305771 32.5,-0.5 Z"/></g>
<g><path style="opacity:0.858" fill="#ffffff" d="M 28.5,22.5 C 28.1583,21.6618 27.4916,21.3284 26.5,21.5C 26.5,20.8333 26.1667,20.5 25.5,20.5C 25.5,19.8333 25.1667,19.5 24.5,19.5C 24.5,18.8333 24.1667,18.5 23.5,18.5C 23.6716,17.5084 23.3382,16.8417 22.5,16.5C 21.2486,11.8264 22.082,7.49306 25,3.5C 30.5,9 36,14.5 41.5,20C 37.5069,22.918 33.1736,23.7514 28.5,22.5 Z"/></g>
<g><path style="opacity:0.81" fill="#ffffff" d="M 22.5,16.5 C 22.3284,17.4916 22.6618,18.1583 23.5,18.5C 24.1667,18.5 24.5,18.8333 24.5,19.5C 25.1667,19.5 25.5,19.8333 25.5,20.5C 26.1667,20.5 26.5,20.8333 26.5,21.5C 26.8417,22.3382 27.5084,22.6716 28.5,22.5C 29.3984,23.1577 30.3984,23.8243 31.5,24.5C 25.9855,28.4252 20.6521,32.5919 15.5,37C 13.735,37.6397 12.0683,37.4731 10.5,36.5C 10.5,35.8333 10.1667,35.5 9.5,35.5C 7.75164,33.8401 7.25164,31.8401 8,29.5C 12.4081,24.3479 16.5748,19.0145 20.5,13.5C 21.1757,14.6016 21.8423,15.6016 22.5,16.5 Z"/></g>
<g><path style="opacity:0.606" fill="#ffffff" d="M 9.5,35.5 C 10.1667,35.5 10.5,35.8333 10.5,36.5C 8.89961,38.5713 8.39961,40.9047 9,43.5C 10.4659,45.3249 12.2992,45.8249 14.5,45C 20.4685,40.0328 26.1352,34.6995 31.5,29C 42.79,28.2117 45.6233,32.7117 40,42.5C 37.961,44.8745 35.6277,46.8745 33,48.5C 31.7705,47.7248 31.4372,46.7248 32,45.5C 34.706,43.1294 37.0394,40.4628 39,37.5C 39.8333,33 38,31.1667 33.5,32C 28.1352,37.6995 22.4685,43.0328 16.5,48C 7.50543,49.6733 4.00543,46.1733 6,37.5C 6.81595,36.1772 7.98261,35.5106 9.5,35.5 Z"/></g>
</svg>
