<?xml version="1.0" encoding="UTF-8"?>
<!DOCTYPE svg PUBLIC "-//W3C//DTD SVG 1.1//EN" "http://www.w3.org/Graphics/SVG/1.1/DTD/svg11.dtd">
<svg xmlns="http://www.w3.org/2000/svg" version="1.1" width="100px" height="100px" style="shape-rendering:geometricPrecision; text-rendering:geometricPrecision; image-rendering:optimizeQuality; fill-rule:evenodd; clip-rule:evenodd" xmlns:xlink="http://www.w3.org/1999/xlink">
<g><path style="opacity:0.883" fill="#ffffff" d="M 65.5,0.5 C 80.5515,0.885394 88.8848,8.55206 90.5,23.5C 90.1065,28.5184 88.4398,33.0184 85.5,37C 84.8333,37.6667 84.1667,37.6667 83.5,37C 73.6667,27.1667 63.8333,17.3333 54,7.5C 53.4926,6.00392 53.9926,4.83726 55.5,4C 58.8502,2.51368 62.1835,1.34702 65.5,0.5 Z"/></g>
<g><path style="opacity:0.919" fill="#ffffff" d="M 49.5,8.5 C 61.0934,18.4248 72.0934,29.0914 82.5,40.5C 72.6634,48.2859 62.6634,48.4526 52.5,41C 43.2348,30.9143 42.2348,20.081 49.5,8.5 Z"/></g>
<g><path style="opacity:0.891" fill="#ffffff" d="M 40.5,28.5 C 43.7882,33.9874 47.7882,39.154 52.5,44C 55.7954,46.434 59.462,48.1007 63.5,49C 52.1085,56.3676 41.4419,64.7009 31.5,74C 29.3046,75.373 26.9712,75.7063 24.5,75C 21.6667,72.1667 18.8333,69.3333 16,66.5C 15.3333,64.8333 15.3333,63.1667 16,61.5C 25.1793,51.168 33.3459,40.168 40.5,28.5 Z M 42.5,45.5 C 43.5,45.5 44.5,45.5 45.5,45.5C 44.37,49.3129 42.0367,52.3129 38.5,54.5C 37.5,54.1667 36.8333,53.5 36.5,52.5C 38.5227,50.1472 40.5227,47.8138 42.5,45.5 Z"/></g>
<g><path style="opacity:0.752" fill="#ffffff" d="M 66.5,57.5 C 82.7053,56.8541 88.5386,64.1875 84,79.5C 78.9805,86.0197 73.1472,91.6864 66.5,96.5C 65.1667,95.8333 64.1667,94.8333 63.5,93.5C 68.1515,88.3481 72.9849,83.3481 78,78.5C 82.7428,70.3221 80.5761,64.9888 71.5,62.5C 69.701,62.577 68.0344,63.077 66.5,64C 55.4373,75.7319 43.7707,86.7319 31.5,97C 20.0009,100.047 13.0009,95.7133 10.5,84C 11.2213,79.0567 13.3879,74.8901 17,71.5C 18.353,72.6853 19.5197,74.0186 20.5,75.5C 14.5856,81.9234 15.2522,87.4234 22.5,92C 24.8333,92.6667 27.1667,92.6667 29.5,92C 41.7292,80.2667 54.0625,68.7667 66.5,57.5 Z"/></g>
</svg>
