<?xml version="1.0" standalone="no"?>
<!DOCTYPE svg PUBLIC "-//W3C//DTD SVG 20010904//EN"
 "http://www.w3.org/TR/2001/REC-SVG-20010904/DTD/svg10.dtd">
<svg version="1.0" xmlns="http://www.w3.org/2000/svg"
 width="50.000000pt" height="50.000000pt" viewBox="0 0 50.000000 50.000000"
 preserveAspectRatio="xMidYMid meet">

<g transform="translate(0.000000,50.000000) scale(0.100000,-0.100000)"
fill="#ffffff" stroke="none">
<path d="M247 494 c-4 -4 -7 -58 -7 -121 0 -63 -4 -113 -9 -113 -6 0 -11 15
-13 33 -2 24 -8 32 -23 32 -18 0 -20 -8 -23 -74 l-3 -73 -34 38 c-28 33 -36
37 -52 28 -10 -6 -19 -18 -21 -27 -4 -18 116 -177 151 -202 14 -10 45 -15 90
-15 63 0 71 3 98 30 l30 29 -3 128 c-3 120 -4 128 -23 128 -14 0 -21 -8 -23
-27 -5 -41 -20 -34 -24 10 -2 29 -7 37 -23 37 -15 0 -21 -8 -23 -32 -2 -18 -7
-33 -12 -33 -5 0 -11 51 -12 112 -2 92 -6 113 -18 116 -9 1 -19 0 -23 -4z"/>
</g>
</svg>
