<?xml version="1.0" standalone="no"?>
<!DOCTYPE svg PUBLIC "-//W3C//DTD SVG 20010904//EN"
 "http://www.w3.org/TR/2001/REC-SVG-20010904/DTD/svg10.dtd">
<svg version="1.0" xmlns="http://www.w3.org/2000/svg"
 width="100.000000pt" height="100.000000pt" viewBox="0 0 100.000000 100.000000"
 preserveAspectRatio="xMidYMid meet">

<g transform="translate(0.000000,100.000000) scale(0.100000,-0.100000)"
fill="#ffffff" stroke="none">
<path d="M500 990 c-12 -8 -16 -49 -20 -237 -4 -194 -7 -228 -20 -228 -11 0
-16 15 -20 58 -5 58 -18 77 -52 77 -41 0 -48 -25 -48 -168 l-1 -137 -31 35
c-17 19 -44 50 -60 68 -25 28 -35 33 -66 30 -43 -4 -69 -39 -59 -79 4 -13 67
-100 140 -194 164 -211 170 -215 334 -215 155 0 206 22 244 105 16 35 19 68
19 272 0 197 -2 234 -16 247 -37 37 -76 13 -83 -51 -4 -34 -11 -48 -21 -48
-11 0 -16 16 -20 68 -5 68 -16 87 -50 87 -32 0 -45 -20 -50 -77 -4 -43 -9 -58
-20 -58 -13 0 -16 33 -20 218 -4 179 -8 219 -20 227 -19 12 -41 12 -60 0z"/>
</g>
</svg>
