<?xml version="1.0" encoding="UTF-8"?>
<!DOCTYPE svg PUBLIC "-//W3C//DTD SVG 1.1//EN" "http://www.w3.org/Graphics/SVG/1.1/DTD/svg11.dtd">
<svg xmlns="http://www.w3.org/2000/svg" version="1.1" width="100px" height="100px" style="shape-rendering:geometricPrecision; text-rendering:geometricPrecision; image-rendering:optimizeQuality; fill-rule:evenodd; clip-rule:evenodd" xmlns:xlink="http://www.w3.org/1999/xlink">
<g><path style="opacity:0.916" fill="#ffffff" d="M 26.5,3.5 C 36.6591,2.15811 40.8257,6.49144 39,16.5C 36.1034,21.1549 31.9367,22.6549 26.5,21C 21.8451,18.1034 20.3451,13.9367 22,8.5C 23.025,6.31305 24.525,4.64638 26.5,3.5 Z"/></g>
<g><path style="opacity:0.917" fill="#ffffff" d="M 22.5,27.5 C 27.1785,27.3342 31.8452,27.5008 36.5,28C 41.4675,31.966 46.1342,36.2993 50.5,41C 54.899,41.817 59.2324,42.817 63.5,44C 64.9436,45.126 65.6102,46.626 65.5,48.5C 64.4181,51.5392 64.4181,54.5392 65.5,57.5C 68.9186,59.6265 72.4186,61.6265 76,63.5C 77.9594,67.6689 79.4594,72.0022 80.5,76.5C 76.3587,77.3307 72.1921,77.9974 68,78.5C 67.1667,78.1667 66.3333,77.8333 65.5,77.5C 63.179,69.8836 61.0124,62.2169 59,54.5C 54.2096,53.2828 49.3762,52.1161 44.5,51C 43,49.5 41.5,48 40,46.5C 38.8091,55.4713 41.1424,63.4713 47,70.5C 48.973,76.7251 50.473,83.0584 51.5,89.5C 51.4871,94.999 48.8205,96.8323 43.5,95C 42.2986,94.0975 41.4652,92.9308 41,91.5C 39.8225,86.4565 38.4892,81.4565 37,76.5C 31.527,71.9387 26.527,66.9387 22,61.5C 21.6667,55.8333 21.3333,50.1667 21,44.5C 20,45.5 19,46.5 18,47.5C 16.6007,53.0432 14.434,58.2099 11.5,63C 6.51519,64.7569 3.84853,63.0903 3.5,58C 4.60827,52.4009 6.10827,46.9009 8,41.5C 12.7287,36.6025 17.562,31.9359 22.5,27.5 Z"/></g>
<g><path style="opacity:0.943" fill="#ffffff" d="M 21.5,66.5 C 25.0865,68.5797 28.2532,71.2463 31,74.5C 31.6667,80.8333 31.6667,87.1667 31,93.5C 28,96.1667 25,96.1667 22,93.5C 21.5002,84.5062 21.3336,75.5062 21.5,66.5 Z"/></g>
<g><path style="opacity:0.923" fill="#ffffff" d="M 66.5,81.5 C 73.8409,81.3337 81.1742,81.5003 88.5,82C 94.1311,84.7615 96.4644,89.2615 95.5,95.5C 85.8276,95.6665 76.1609,95.4998 66.5,95C 62.5413,90.5015 62.5413,86.0015 66.5,81.5 Z M 68.5,86.5 C 69.8333,86.5 71.1667,86.5 72.5,86.5C 72.5,87.8333 72.5,89.1667 72.5,90.5C 71.1667,90.5 69.8333,90.5 68.5,90.5C 68.5,89.1667 68.5,87.8333 68.5,86.5 Z"/></g>
</svg>
