<?xml version="1.0" encoding="UTF-8"?>
<!DOCTYPE svg PUBLIC "-//W3C//DTD SVG 1.1//EN" "http://www.w3.org/Graphics/SVG/1.1/DTD/svg11.dtd">
<svg xmlns="http://www.w3.org/2000/svg" version="1.1" width="50px" height="50px" style="shape-rendering:geometricPrecision; text-rendering:geometricPrecision; image-rendering:optimizeQuality; fill-rule:evenodd; clip-rule:evenodd" xmlns:xlink="http://www.w3.org/1999/xlink">
<g><path style="opacity:0.821" fill="#ffffff" d="M 11.5,1.5 C 19.1589,0.00990123 21.4922,2.84323 18.5,10C 10.7558,11.8002 8.42242,8.96686 11.5,1.5 Z"/></g>
<g><path style="opacity:0.847" fill="#ffffff" d="M 15.5,36.5 C 15.5,35.8333 15.1667,35.5 14.5,35.5C 14.5,34.8333 14.1667,34.5 13.5,34.5C 13.5,33.8333 13.1667,33.5 12.5,33.5C 12.5,32.8333 12.1667,32.5 11.5,32.5C 10.7485,29.2527 10.2485,25.9194 10,22.5C 8.54984,25.0081 7.38317,27.6748 6.5,30.5C 4.95467,31.4519 3.28801,31.7852 1.5,31.5C 1.22493,18.9387 7.22493,13.1054 19.5,14C 22.3838,18.4015 26.3838,20.9015 31.5,21.5C 32.3142,23.7662 32.8142,26.0995 33,28.5C 37.5264,30.047 40.0264,33.2137 40.5,38C 37.8243,38.7396 35.1576,39.0729 32.5,39C 30.9538,34.9813 29.9538,30.8146 29.5,26.5C 25.8084,27.0288 22.6417,26.0288 20,23.5C 19.8369,28.2039 21.1702,32.5372 24,36.5C 25.1076,40.0863 25.6076,43.753 25.5,47.5C 23.712,47.7852 22.0453,47.4519 20.5,46.5C 19.6677,43.839 18.8344,41.1724 18,38.5C 17.2917,37.6195 16.4584,36.9528 15.5,36.5 Z"/></g>
<g><path style="opacity:0.886" fill="#ffffff" d="M 11.5,32.5 C 12.1667,32.5 12.5,32.8333 12.5,33.5C 13.1667,33.5 13.5,33.8333 13.5,34.5C 14.1667,34.5 14.5,34.8333 14.5,35.5C 15.1667,35.5 15.5,35.8333 15.5,36.5C 15.5,40.1667 15.5,43.8333 15.5,47.5C 13.8333,47.5 12.1667,47.5 10.5,47.5C 10.1795,42.3054 10.5128,37.3054 11.5,32.5 Z"/></g>
<g><path style="opacity:0.861" fill="#ffffff" d="M 32.5,40.5 C 36.8461,40.3343 41.1794,40.501 45.5,41C 47.229,42.7889 47.8957,44.9556 47.5,47.5C 42.4889,47.6659 37.4889,47.4993 32.5,47C 31.232,44.8368 31.232,42.6702 32.5,40.5 Z"/></g>
</svg>
